<?xml version="1.0" standalone="no"?><!DOCTYPE svg PUBLIC "-//W3C//DTD SVG 1.1//EN" "http://www.w3.org/Graphics/SVG/1.1/DTD/svg11.dtd"><svg t="1540623736071" class="icon" style="" viewBox="0 0 1024 1024" version="1.1" xmlns="http://www.w3.org/2000/svg" p-id="4231" xmlns:xlink="http://www.w3.org/1999/xlink" width="200" height="200"><defs><style type="text/css"></style></defs><path d="M184 756.8c-108.9-108.9-71.2-323.2 84.3-478.7S638 85 746.9 193.9c0 0-67.1 0.4-179.8 135.2-93.2 111.5-60.1 193.4-193.9 347.3C268.8 796.6 184 756.8 184 756.8z" fill="#8495a0" p-id="4232"></path><path d="M220.2 785.8h-1.9c-27.2-0.4-53.3-13.5-69.8-35.3-94.9-124.4-50.3-334.3 103.7-488.4 74.4-74.4 165.3-125.9 255.7-145 92.6-19.5 176.7-3.7 236.9 44.6 9.6 7.7 14.3 20 12.1 32.2-2.1 12.1-10.7 22-22.3 25.9-24.3 8.2-76.1 35.2-150.2 123.9-39.8 47.5-56.3 88.5-75.5 136-23.5 58.2-50.1 124.3-126.1 211.7-55 63.5-108.3 94.4-162.6 94.4z m363.2-631.4c-96.2 0-208.7 49.5-299.1 139.8C148.6 430 104.7 618.3 184.6 723c8.2 10.7 21 17.2 34.3 17.4 40.8 0.2 83.2-25.3 129.9-78.9 70.9-81.6 95-141.2 118.2-198.9 19.7-48.9 38.4-95.1 82.7-148.2 63.7-76.2 114.5-112.3 150-129.3-33.1-20.7-73.1-30.7-116.3-30.7z" fill="#8495a0" p-id="4233"></path><path d="M843 254c108.9 108.9 71.2 323.2-84.3 478.7S389 925.9 280.1 816.9c0 0 67.1-0.4 179.8-135.2 93.3-111.5 60.2-193.5 193.9-347.3C758.2 214.3 843 254 843 254z" fill="#8495a0" p-id="4234"></path><path d="M443.8 901.9c-62.4 0-118.2-17.9-161.6-52.7-9.6-7.7-14.3-20.1-12.1-32.2 2.1-12.1 10.7-22 22.3-25.9 24.3-8.2 76.1-35.2 150.2-123.9 39.8-47.5 56.3-88.5 75.5-136 23.4-58.2 50-124.3 125.9-211.6 54.9-63.2 107.8-94.1 161.7-94.5h0.6c29 0 56.8 14.3 74.5 38.3 91.7 124.6 46.1 333.3-106 485.4-74.4 74.4-165.3 125.9-255.7 145-25.9 5.4-51.1 8.1-75.3 8.1z m-116.5-76.2c106.9 67 284.5 21.9 415.4-109 136.4-136.4 180.1-319.8 101.6-426.4-9.1-12.4-23.3-19.8-37.9-19.8h-0.3c-40.1 0.3-81.9 26.1-127.8 78.9-70.9 81.6-95 141.2-118.2 198.9-19.7 48.9-38.4 95.1-82.7 148.2-63.8 76-114.5 112.2-150.1 129.2z" fill="#8495a0" p-id="4235"></path><path d="M214.9 522.2c-2 0-4-0.3-6-0.8-12.1-3.3-19.2-15.8-15.9-27.9 9.5-34.5 24.5-67 44.6-96.5 7.1-10.4 21.2-13 31.5-6 10.4 7.1 13 21.2 6 31.5-17.3 25.3-30.2 53.3-38.4 82.9-2.7 10.1-11.9 16.8-21.8 16.8zM206 637.8c-11.4 0-21.2-8.5-22.5-20.1-1.9-16.3-2.6-32.9-2-49.3 0.4-12.5 10.7-22.2 23.5-21.9 12.5 0.4 22.3 11 21.9 23.5-0.5 14.1 0.1 28.4 1.7 42.4 1.5 12.5-7.5 23.7-19.9 25.2-1 0.2-1.8 0.2-2.7 0.2z" fill="#8495a0" p-id="4236"></path></svg>